Good Morning, Killer
												

											

Tuesday, Dec. 13 at 9 p.m. (ET/PT)
												

Adapted by April Smith from her own novel, this thriller stars Catherine Bell (JAG, Army 

Wives) as FBI Special Agent Ana Gray, an undercover operative tracking down a serial 

kidnapper. As Ana develops a rapport with the kidnapper's latest victim, the suspect 

suddenly changes his pattern. Now Ana must race to find him before he strikes again. Good 

Morning, Killer co-stars Cole Hauser (Chase, K-Ville) as Detective Andrew Berringer; 

William Devane (Knots Landing, 24) as Everett Morgan "Poppy" Grey, Ana's grandfather; Titus 

Welliver (The Good Wife, Lost) as FBI Special Agent Mike Donnato, Ana's partner; and Suleka 

Mathew (TNT's HawthoRNe) as FBI Agent Barbara Sullivan, Ana's best friend at the bureau. In 

addition to writing the screenplay, Smith is set executive-produce Good Morning, Killer 

with Frank von Zerneck (We Were the Mulvaneys, Miracle on Ice). Maggie Greenwald 

(Songcatcher, The Ballad of Little Jo) will direct.						

												

											

Enjoy and please share.										

												

												

												

TTLTTLTTLTTLTTLTTLTTLTTLTTLTTLTTLTTLTTLTTLTTLTTLTTLTTLTTLTTLTTL					

												

												

												

Good_Morning_Killer_480p.HDTV.x264_TTL.mkv
Format                           : Matroska
File size                        : 1.14 GiB
Duration                         : 1h 28mn
Overall bit rate                 : 1 845 Kbps
Writing application              : HandBrake 0.9.5
Writing library                  : libmkv 0.6.4.1

Video
ID                               : 1
Format                           : AVC
Format/Info                      : Advanced Video Codec
Format profile                   : High@L3.0
Format settings, CABAC           : Yes
Format settings, ReFrames        : 4 frames
Muxing mode                      : Container profile=Unknown@3.0
Codec ID                         : V_MPEG4/ISO/AVC
Duration                         : 1h 28mn
Bit rate                         : 1 584 Kbps
Nominal bit rate                 : 1 615 Kbps
Width                            : 624 pixels
Height                           : 352 pixels
Display aspect ratio             : 16:9
Frame rate mode                  : Variable
Frame rate                       : 29.970 fps
Resolution                       : 8 bits
Colorimetry                      : 4:2:0
Scan type                        : Progressive
Bits/(Pixel*Frame)               : 0.241
Stream size                      : 999 MiB (86%)
Writing library                  : x264 core 112
Encoding settings                : cabac=1 / ref=3 / deblock=1:0:0 / analyse=0x3:0x113 / 

me=hex / subme=7 / psy=1 / psy_rd=1.00:0.00 / mixed_ref=1 / me_range=16 / chroma_me=1 / 

trellis=1 / 8x8dct=1 / cqm=0 / deadzone=21,11 / fast_pskip=1 / chroma_qp_offset=-2 / 

threads=6 / sliced_threads=0 / nr=0 / decimate=1 / interlaced=0 / constrained_intra=0 / 

bframes=3 / b_pyramid=2 / b_adapt=1 / b_bias=0 / direct=1 / weightb=1 / open_gop=0 / 

weightp=2 / keyint=300 / keyint_min=29 / scenecut=40 / intra_refresh=0 / rc_lookahead=40 / 

rc=2pass / mbtree=1 / bitrate=1615 / ratetol=1.0 / qcomp=0.60 / qpmin=3 / qpmax=51 / 

qpstep=4 / cplxblur=20.0 / qblur=0.5 / ip_ratio=1.40 / aq=1:1.00
Color primaries                  : BT.601-6 525, BT.1358 525, BT.1700 NTSC, SMPTE 170M
Transfer characteristics         : BT.709-5, BT.1361
Matrix coefficients              : BT.601-6 525, BT.1358 525, BT.1700 NTSC, SMPTE 170M

Audio
ID                               : 2
Format                           : AC-3
Format/Info                      : Audio Coding 3
Codec ID                         : A_AC3
Duration                         : 1h 28mn
Bit rate mode                    : Constant
Bit rate                         : 224 Kbps
Channel(s)                       : 2 channels
Channel positions                : L R
Sampling rate                    : 48.0 KHz
Stream size                      : 141 MiB (12%)

